# xmcd CD database file
#
# Track frame offsets:
#	150
#	13354
#	25896
#	46372
#	62926
#	71734
#	90629
#	106626
#	121794
#	139324
#	153489
#	177232
#	197903
#
# Disc length: 2838 seconds
#
# Revision: 0
# Processed by: cddbd v1.5.2PL0 Copyright (c) Steve Scherf et al.
# Submitted via: CDex 1.51
#
DISCID=b60b140d
DTITLE=Chiara Civello - The Space Between
DYEAR=2008
DGENRE=Jazz
TTITLE0=Night
TTITLE1=If You Ever Think Of Me
TTITLE2=Un passo dopo l'altro
TTITLE3=My broken heart
TTITLE4=Mr. Tru Love
TTITLE5=Without him
TTITLE6=Isola
TTITLE7=Seagulls
TTITLE8=Don't ask me why
TTITLE9=L Train
TTITLE10=Skylark
TTITLE11=Born to sail away
TTITLE12=Your home
EXTD=YEAR: 2008
EXTT0=
EXTT1=
EXTT2=
EXTT3=
EXTT4=
EXTT5=
EXTT6=
EXTT7=
EXTT8=
EXTT9=
EXTT10=
EXTT11=
EXTT12=
PLAYORDER=
